<svg xmlns="http://www.w3.org/2000/svg" viewBox="0 0 256 256" role="img" aria-label="GOST Standardizer icon">
  <defs>
    <linearGradient id="bg" x1="0" y1="0" x2="1" y2="1">
      <stop offset="0%" stop-color="#1E5B52"/>
      <stop offset="100%" stop-color="#0F2E36"/>
    </linearGradient>
  </defs>

  <rect width="256" height="256" rx="40" fill="url(#bg)"/>

  <g transform="translate(40 34)">
    <rect width="176" height="176" rx="30" fill="#F8F3E7"/>
    <path d="M54 54h68c8 0 14 6 14 14v70c0 8-6 14-14 14H54c-8 0-14-6-14-14V68c0-8 6-14 14-14z" fill="#1E5B52" opacity="0.12"/>
    <rect x="30" y="30" width="98" height="112" rx="16" fill="#F8F3E7"/>
    <rect x="46" y="50" width="68" height="10" rx="5" fill="#1E5B52"/>
    <rect x="46" y="72" width="54" height="8" rx="4" fill="#9AB7B0"/>
    <rect x="46" y="90" width="66" height="8" rx="4" fill="#9AB7B0"/>
    <rect x="46" y="108" width="48" height="8" rx="4" fill="#9AB7B0"/>
    <path d="M132 102l12 12 24-30" fill="none" stroke="#A8D0C8" stroke-width="9" stroke-linecap="round" stroke-linejoin="round"/>
    <path d="M30 30h24c4 0 8 4 8 8v14c0 4-4 8-8 8H30z" fill="#DDEAE6"/>
  </g>
</svg>
